<svg xmlns="http://www.w3.org/2000/svg" viewBox="0 0 64 64" fill="none">
  <defs>
    <linearGradient id="g" x1="0" y1="0" x2="1" y2="1">
      <stop offset="0%" stop-color="#f97316"/>
      <stop offset="100%" stop-color="#ec4899"/>
    </linearGradient>
  </defs>
  <rect width="64" height="64" rx="16" fill="url(#g)"/>
  <path d="M32 14c-6 0-9 4-9 8 0 2-2 3-2 6 0 2 1 4 3 5-1 1-2 3-2 5 0 4 4 7 8 7h1v3a2 2 0 0 0 4 0v-3c5-1 8-5 8-9 0-2-1-4-2-5 1-1 2-3 2-5 0-3-2-5-2-6 0-4-4-6-9-6Z" stroke="white" stroke-width="2.4" stroke-linejoin="round" fill="rgba(255,255,255,0.12)"/>
  <path d="M28 23c0 2 2 3 4 3M36 23c0 2-2 3-4 3M32 26v8M27 30c1 2 3 3 5 3M37 30c-1 2-3 3-5 3" stroke="white" stroke-width="1.6" stroke-linecap="round"/>
</svg>
